<?xml version="1.0" standalone="no"?>
<!DOCTYPE svg PUBLIC "-//W3C//DTD SVG 20010904//EN"
 "http://www.w3.org/TR/2001/REC-SVG-20010904/DTD/svg10.dtd">
<svg version="1.0" xmlns="http://www.w3.org/2000/svg"
 width="1000.000000pt" height="1000.000000pt" viewBox="0 0 1000.000000 1000.000000"
 preserveAspectRatio="xMidYMid meet">
<metadata>
Created by potrace 1.14, written by Peter Selinger 2001-2017
</metadata>
<g transform="translate(0.000000,1000.000000) scale(0.100000,-0.100000)"
fill="#000000" stroke="none">
<path d="M995 9980 c-326 -67 -608 -255 -788 -527 -90 -135 -146 -266 -189
-443 -19 -82 -19 -7938 0 -8020 43 -178 99 -308 190 -445 183 -276 478 -468
811 -530 74 -13 509 -15 3981 -15 3472 0 3907 2 3981 15 333 62 628 254 811
530 91 137 147 267 190 445 11 45 13 750 13 4010 0 3260 -2 3965 -13 4010 -43
178 -99 308 -190 445 -183 276 -478 468 -811 530 -74 13 -507 15 -3990 14
-3756 -1 -3909 -1 -3996 -19z"/>
</g>
</svg>
